<svg xmlns="http://www.w3.org/2000/svg" viewBox="0 0 442.62 442.62"><defs><style>.cls-1{fill:#fff;}.cls-2{fill:#f0ede3;stroke:#fff;stroke-width:2px;}.cls-3{fill:#f7941d;stroke:#414042;}.cls-4{fill:#231f20;}.cls-5{fill:#fee812;}.cls-6{fill:#d1d3d4;}</style></defs><title>Asset 2</title><g id="Layer_2" data-name="Layer 2"><g id="Layer_1-2" data-name="Layer 1"><path class="cls-1" d="M194.55,37.25q.06,4.05-.13,36.75a17,17,0,0,1-3,10.16,9.29,9.29,0,0,1-8.19,4.32,10.76,10.76,0,0,1-7.6-3.14,11.53,11.53,0,0,1-3.34-8.46q-.27-7.66-.13-9.43c.09-1,.48-1.42,1.18-1.38a42,42,0,0,0,5.76,0c.7,0,1.09.51,1.18,1.64q.13,1.25,0,6.1,0,6.09,3.08,5.83,2.82-.27,2.82-5.83V37.25c0-1,.39-1.45,1.18-1.45q2.35.08,6.09,0C194.17,35.76,194.55,36.24,194.55,37.25Z"/><path class="cls-1" d="M219.57,77.87q0,11-10.48,11-5.43,0-7.79-2.76-2.24-2.55-2.23-8.25V47.53q0-7.14,2.88-10.15,2.36-2.49,7.14-2.49,5.11,0,7.47,2.16,3,2.75,3,9.7Zm-8.32-3V48.38c0-2.57-.61-3.86-1.83-3.86s-2,1.31-2,3.93V75a4.93,4.93,0,0,0,.46,2.72,1.9,1.9,0,0,0,1.57.56C210.64,78.26,211.25,77.15,211.25,74.92Z"/><path class="cls-1" d="M234.32,86.52c0,1-.35,1.66-1,1.83q-1.58.47-6.88,0c-.87-.09-1.31-.79-1.31-2.1q.12-22.14.06-49.27a4.77,4.77,0,0,1,.14-1.18q.19-.78.72-.78c1.87,0,4.26,0,7.14.13.74.09,1.13.7,1.18,1.83Z"/><path class="cls-1" d="M263.67,36.4q-.07-3.42-.33,50.11c0,1.14-.35,1.77-1,1.91a21,21,0,0,1-6.62,0,1.78,1.78,0,0,1-1.5-1.38q-2.16-9.83-5-22.28c-.17-.65-.43-1-.78-1s-.4.46-.4,1.37V74.4q-.06,7.83-.06,12.19c0,.87-.55,1.41-1.64,1.63a11.88,11.88,0,0,1-3,.2l-2.68-.07q-1.32.06-1.38-1.5-.25-9.15-.13-27.58.14-17.85.46-22.69c.08-1,.37-1.58.85-1.63q1.58-.06,4.26,0l3.54.13c.61,0,1,.46,1.18,1.38Q252.66,52.32,254,56.9c.35,1.18.63,1.77.85,1.77s.42-.68.33-2q-.26-5.33-.26-20.23c0-1,.44-1.49,1.31-1.45h6.09A1.29,1.29,0,0,1,263.67,36.4Z"/><path class="cls-2" d="M413.8,221.2C413.8,328.25,327,415,220,415S26.15,328.25,26.15,221.2,112.93,27.38,220,27.38,413.8,114.16,413.8,221.2Z"/><circle class="cls-3" cx="221.31" cy="221.31" r="220.81"/><polygon class="cls-4" points="344.64 221.2 338.82 230.56 343.12 240.71 335.91 249.04 338.57 259.74 330.13 266.83 331.07 277.81 321.63 283.49 320.84 294.49 310.62 298.62 308.13 309.36 297.39 311.85 293.26 322.06 282.26 322.86 276.59 332.3 265.6 331.36 258.51 339.8 247.82 337.14 239.48 344.35 229.34 340.04 219.98 345.87 210.62 340.04 200.48 344.35 192.14 337.14 181.44 339.8 174.35 331.36 163.37 332.3 157.69 322.85 146.69 322.06 142.56 311.85 131.82 309.35 129.33 298.62 119.11 294.48 118.32 283.49 108.88 277.81 109.82 266.83 101.38 259.74 104.04 249.04 96.83 240.71 101.13 230.56 95.31 221.2 101.13 211.84 96.83 201.7 104.04 193.36 101.39 182.67 109.82 175.57 108.88 164.59 118.32 158.91 119.12 147.92 129.33 143.78 131.83 133.05 142.56 130.56 146.7 120.34 157.69 119.55 163.37 110.1 174.35 111.04 181.44 102.61 192.14 105.27 200.47 98.06 210.62 102.36 219.98 96.54 229.34 102.36 239.48 98.06 247.82 105.27 258.51 102.61 265.61 111.05 276.59 110.11 282.27 119.55 293.26 120.34 297.4 130.56 308.13 133.06 310.62 143.79 320.84 147.93 321.63 158.92 331.08 164.6 330.14 175.58 338.57 182.67 335.91 193.36 343.12 201.7 338.82 211.84 344.64 221.2"/><path class="cls-4" d="M30.77,221.2a195.6,195.6,0,0,0,8.15,55.95H405.65a196.12,196.12,0,0,0,0-111.9H38.92A195.65,195.65,0,0,0,30.77,221.2Z"/><polygon class="cls-5" points="217.02 141.33 219.91 150.23 229.26 150.23 221.69 155.73 224.58 164.63 217.02 159.13 209.45 164.63 212.34 155.73 204.77 150.23 214.13 150.23 217.02 141.33"/><polygon class="cls-5" points="253.91 141.96 256.8 150.85 266.16 150.85 258.59 156.35 261.48 165.25 253.91 159.75 246.35 165.25 249.24 156.35 241.66 150.85 251.02 150.85 253.91 141.96"/><polygon class="cls-5" points="182.68 141.96 185.57 150.85 194.93 150.85 187.35 156.35 190.25 165.25 182.68 159.75 175.11 165.25 178 156.35 170.43 150.85 179.79 150.85 182.68 141.96"/><polygon class="cls-5" points="148.34 141.96 151.23 150.85 160.59 150.85 153.02 156.35 155.91 165.25 148.34 159.75 140.77 165.25 143.66 156.35 136.09 150.85 145.45 150.85 148.34 141.96"/><polygon class="cls-5" points="290.81 141.96 293.7 150.85 303.06 150.85 295.49 156.35 298.38 165.25 290.81 159.75 283.24 165.25 286.13 156.35 278.56 150.85 287.92 150.85 290.81 141.96"/><path class="cls-4" d="M221.31.5C99.36.5.5,99.36.5,221.31S99.36,442.12,221.31,442.12s220.81-98.85,220.81-220.81S343.26.5,221.31.5Zm.45,432.76c-117,0-211.94-94.89-211.94-211.95S104.71,9.36,221.76,9.36s212,94.9,212,212S338.82,433.26,221.76,433.26Z"/><path class="cls-1" d="M56.23,228.19l-5,15.06H44.86l16.27-47.9h7.46l16.35,47.9H78.33l-5.12-15.06Zm15.7-4.84-4.69-13.79c-1.06-3.12-1.77-6-2.48-8.74h-.15c-.71,2.84-1.49,5.76-2.41,8.67l-4.69,13.86Z"/><path class="cls-1" d="M96,243.25l-12.15-47.9h6.54l5.68,24.24c1.42,6,2.7,11.94,3.56,16.56h.14c.78-4.77,2.27-10.45,3.91-16.64l6.4-24.16h6.46l5.83,24.31c1.35,5.68,2.63,11.37,3.34,16.42h.14c1-5.26,2.35-10.6,3.84-16.57l6.33-24.16h6.32l-13.57,47.9h-6.47l-6-24.94a145.58,145.58,0,0,1-3.13-15.64H113a148.8,148.8,0,0,1-3.7,15.64l-6.82,24.94Z"/><path class="cls-1" d="M147.49,235.72a21.92,21.92,0,0,0,11.09,3.13c6.33,0,10-3.34,10-8.18,0-4.47-2.56-7-9-9.52-7.82-2.77-12.66-6.82-12.66-13.58,0-7.46,6.19-13,15.5-13A21.76,21.76,0,0,1,173,196.91L171.3,202a19.07,19.07,0,0,0-9.09-2.28c-6.54,0-9,3.91-9,7.18,0,4.48,2.91,6.68,9.52,9.24,8.11,3.13,12.23,7,12.23,14.08,0,7.39-5.47,13.78-16.78,13.78-4.62,0-9.66-1.35-12.22-3.05Z"/><path class="cls-1" d="M189.57,195.35v28.36c0,10.73,4.76,15.28,11.16,15.28,7.11,0,11.66-4.69,11.66-15.28V195.35h6.25v27.93c0,14.71-7.75,20.76-18.12,20.76-9.81,0-17.2-5.62-17.2-20.47V195.35Z"/><path class="cls-1" d="M265.84,241.12a44.58,44.58,0,0,1-14.72,2.63c-7.25,0-13.22-1.85-17.91-6.32-4.12-4-6.68-10.38-6.68-17.84.07-14.29,9.88-24.74,25.94-24.74a29.78,29.78,0,0,1,12,2.2l-1.5,5A24.77,24.77,0,0,0,252.33,200c-11.65,0-19.26,7.25-19.26,19.26s7.32,19.33,18.48,19.33c4,0,6.82-.56,8.24-1.28V223.07h-9.73v-5h15.78Z"/><path class="cls-1" d="M281.47,195.35v20h23.18v-20h6.25v47.9h-6.25V220.79H281.47v22.46h-6.18v-47.9Z"/><path class="cls-1" d="M331.8,243.25V222.93l-15.14-27.58h7l6.75,13.22c1.85,3.62,3.27,6.54,4.76,9.88h.14c1.35-3.13,3-6.26,4.84-9.88l6.89-13.22h7l-16.07,27.5v20.4Z"/><path class="cls-1" d="M359.09,196a88.43,88.43,0,0,1,13.15-1c8.89,0,15.21,2.06,19.41,6s6.75,9.46,6.75,17.2-2.42,14.22-6.9,18.63-11.87,6.89-21.18,6.89a98.81,98.81,0,0,1-11.23-.57Zm6.19,42.36a39.6,39.6,0,0,0,6.25.35c13.22,0,20.4-7.39,20.4-20.32.07-11.3-6.32-18.48-19.4-18.48a34.76,34.76,0,0,0-7.25.64Z"/><path class="cls-1" d="M84.38,136.76l6.33,7.29-2,3.31L69.44,124.42a1.37,1.37,0,0,1-.14-1.73l2.06-3.34a1.37,1.37,0,0,1,1.6-.67l29.16,6.8-2,3.31-9.36-2.35Zm-8.85-14.1c-.79-.19-1.65-.41-2.42-.63l-.62,1,1.65,1.87,8,9.28,5.27-8.58Z"/><path class="cls-1" d="M122.49,101.77a1.49,1.49,0,0,1-.23,1.84l-3,3.08a1.43,1.43,0,0,1-1.84.25L98.3,95c-1-.58-1.93-1.19-2.88-1.8l-.62.64c.66.92,1.34,1.87,2,2.77l12.83,18.6a1.51,1.51,0,0,1-.2,1.87l-3,3.12a1.45,1.45,0,0,1-1.81.28L80,105.17l2.74-2.87,19.76,12.54c1,.61,1.93,1.32,3,2.08l.68-.71c-.81-1.07-1.49-2-2.14-3L91.57,94.9a1.44,1.44,0,0,1,.11-1.9l2.83-3a1.49,1.49,0,0,1,1.9-.19l18.83,11.71c1.07.67,2.09,1.35,3,2.08l.73-.77c-.74-1-1.52-1.93-2.2-2.88L103.42,80.73l2.74-2.86Z"/><path class="cls-1" d="M126.68,82.68c-4.12,1.52-6.88.2-9.4-3.5-3.86-5.68-1.9-8.1,3.53-11.79a44.29,44.29,0,0,1,7.7-4.22l1.33,2.4c-2.12,1.29-4.74,3-7,4.5-3.52,2.4-4.82,3.45-2.38,7,1.83,2.68,3.27,2.83,5.78,1.9L132,76.88c4.36-1.63,7-.27,9.55,3.5,3.82,5.61,2.05,8.31-3.63,12.17a50.11,50.11,0,0,1-8,4.47l-1.34-2.44c4.22-2.66,5.57-3.48,7.55-4.88,3.74-2.55,4.52-3.9,2.24-7.25-1.92-2.82-3.33-2.84-5.8-1.93Z"/><path class="cls-1" d="M173.77,62.08c3,8,1.58,12-5.64,14.79-7.45,2.83-11.33.8-14.36-7.18l-6.46-17,3.5-1.34,6.46,17c2.25,5.9,4.68,7.25,9.5,5.42s5.74-4.47,3.5-10.37l-6.46-17,3.5-1.34Z"/><path class="cls-1" d="M185.32,56.58c-4.39-.24-6.4-2.54-7.25-6.94-1.31-6.74,1.46-8.18,7.9-9.43a45,45,0,0,1,8.75-.83l.27,2.73c-2.46.35-5.53.86-8.21,1.37-4.19.81-5.79,1.26-5,5.53.62,3.18,1.88,3.89,4.56,4l6.15.33c4.64.23,6.52,2.52,7.39,7,1.29,6.66-1.41,8.44-8.15,9.74a50.13,50.13,0,0,1-9.12.94l-.27-2.77c4.93-.78,6.5-1,8.87-1.5,4.44-.86,5.69-1.79,4.92-5.77-.64-3.35-1.93-3.93-4.56-4.07Z"/><path class="cls-1" d="M224.12,66.46c-3.91.39-8.39.55-12.61.7-3.45.13-5.69-1.76-5.85-4.91L205,43c-.07-3.16,2-5.2,5.49-5.32,4.21-.15,8.69-.31,12.62-.19l-.07,3-11.8.41c-1.75.07-2.53.95-2.46,2.91l.23,6.39,12.7-.45.1,3-12.7.45.29,8c.07,2,.91,2.83,2.66,2.77l11.8-.42Z"/><path class="cls-1" d="M245.43,69,244,59.57c-.48-2.3-1.56-3.3-3.5-3.54-2.71-.35-4.82-.67-6.43-.87l-1.56,12.22-3.68-.47,3.73-29.18a81.91,81.91,0,0,1,10.12.91c6.77.86,9.19,3.06,8.35,9.62-.6,4.74-2.42,6.83-6.33,6.84l0,.21A5.52,5.52,0,0,1,247.75,60l1.65,9.58ZM240.8,52.79c4.32.51,5.91-.49,6.46-4.8s-.74-5.6-5.06-6.15c-2.49-.32-4.65-.6-6.3-.77L234.5,52Z"/><path class="cls-1" d="M279.44,76.15a12.67,12.67,0,0,1-9.52.3c-6.17-2.36-7-7.78-3.21-17.66,4.16-10.91,8.4-13,16.88-9.8a32.93,32.93,0,0,1,7.33,3.75l-1.36,2.49c-2.42-1.19-4.94-2.25-7-3-5.93-2.26-8.6-1.37-12.27,8.24-3.08,8.08-2.69,11.61,1.73,13.3,2.83,1.07,5.35.57,7.79-.09L283.91,63l3.43,1.31-6.06,15.9-2.55-1Z"/><path class="cls-1" d="M300.45,91.21,303,82c.48-2.3-.11-3.64-1.79-4.65-2.35-1.4-4.15-2.53-5.54-3.36l-6.33,10.58-3.19-1.91,15.11-25.26a85.08,85.08,0,0,1,8.91,4.88c5.86,3.51,7.2,6.5,3.81,12.17-2.46,4.1-5,5.29-8.55,3.74l-.11.18a5.49,5.49,0,0,1,.94,5.48l-2.32,9.45Zm2.26-16.74c3.76,2.2,5.62,1.92,7.85-1.81s1.56-5.43-2.18-7.67c-2.16-1.29-4-2.41-5.47-3.22l-5.65,9.44Z"/><path class="cls-1" d="M333.76,99.39c-7.58,8.67-12.33,9.51-18.78,3.87s-6.3-10.49,1.27-19.16,12.36-9.48,18.82-3.84S341.34,90.72,333.76,99.39ZM319.24,86.71c-5.92,6.78-6.41,10.19-2.05,14s7.69,2.87,13.61-3.91,6.42-10.2,2.05-14S325.16,79.93,319.24,86.71Z"/><path class="cls-1" d="M349.48,123.9c-6.7,5.28-11,5.1-15.8-1-4.94-6.26-4.16-10.57,2.54-15.86l14.27-11.25,2.32,3L338.54,110c-5,3.91-5.52,6.64-2.32,10.69s6,4.14,10.93.23l14.27-11.25,2.33,3Z"/><path class="cls-1" d="M369.71,122.05a84.44,84.44,0,0,1,5.12,8.72c3.35,6.23,2.71,9.29-3.64,12.7s-9.24,2.25-12.39-3.61a61,61,0,0,1-2.87-6.16l-10.37,5.57-1.77-3.3Zm-8.28,15.86c2.06,3.74,3.8,4.45,8,2.21S374,136,372,132.26c-1.17-2.18-2.2-4.09-3-5.54l-10.48,5.63Z"/><path class="cls-6" d="M160.23,304.83a3.15,3.15,0,0,1-2.33.75h-6.83a3.08,3.08,0,0,1-2.31-.75,3.31,3.31,0,0,1-.71-2.34v-21a3.34,3.34,0,0,1,.71-2.35,3.12,3.12,0,0,1,2.31-.74h6.83a3.19,3.19,0,0,1,2.33.74,3.29,3.29,0,0,1,.72,2.35v6.08h-5.22v-4.52h-2.49v17.85h2.49V296.3H161v6.19A3.26,3.26,0,0,1,160.23,304.83Z"/><path class="cls-6" d="M177,304.83a3.15,3.15,0,0,1-2.33.75h-6.83a3.08,3.08,0,0,1-2.31-.75,3.31,3.31,0,0,1-.71-2.34v-21a3.34,3.34,0,0,1,.71-2.35,3.12,3.12,0,0,1,2.31-.74h6.83a3.19,3.19,0,0,1,2.33.74,3.29,3.29,0,0,1,.72,2.35v21A3.26,3.26,0,0,1,177,304.83Zm-4.5-21.75h-2.49v17.85h2.49Z"/><path class="cls-6" d="M193,305.58v-8.24c0-.27,0-.67.06-1.23s.07-1.11.1-1.67.09-1.25.16-2.08l-1.84,10.34h-3.13l-1.85-10.34c.07.83.13,1.52.16,2.08s.07,1.11.11,1.67,0,1,0,1.23v8.24h-5.12V278.43h5.16L189,286q.39,1.43.63,2.46a10.36,10.36,0,0,1,.26,1.77,10.49,10.49,0,0,1,.27-1.77c.15-.69.36-1.51.62-2.46l2.17-7.6h5.15v27.15Z"/><path class="cls-6" d="M213.3,305.58v-8.24c0-.27,0-.67.06-1.23s.07-1.11.1-1.67.09-1.25.16-2.08l-1.85,10.34h-3.12l-1.85-10.34c.07.83.12,1.52.16,2.08s.07,1.11.11,1.67.05,1,.05,1.23v8.24H202V278.43h5.15l2.17,7.6c.26,1,.47,1.77.62,2.46a9.56,9.56,0,0,1,.27,1.77,9.56,9.56,0,0,1,.27-1.77c.15-.69.36-1.51.62-2.46l2.17-7.6h5.15v27.15Z"/><path class="cls-6" d="M234.5,304.83a3.12,3.12,0,0,1-2.33.75h-6.82a3.05,3.05,0,0,1-2.31-.75,3.31,3.31,0,0,1-.71-2.34V278.43h5.19v22.5H230v-22.5h5.22v24.06A3.22,3.22,0,0,1,234.5,304.83Z"/><path class="cls-6" d="M247.78,305.58l-3.84-12.23s0,.27.09.64.11.86.17,1.44.09,1.08.09,1.48v8.67h-5.15V278.43H244l3.87,12.22s0-.26-.09-.64-.12-.85-.17-1.44a14.67,14.67,0,0,1-.09-1.47v-8.67h5.11v27.15Z"/><path class="cls-6" d="M256.59,305.58V278.43h5.19v27.15Z"/><path class="cls-6" d="M273.79,283.3v22.28H268.6V283.3h-3.34v-4.87h11.87v4.87Z"/><path class="cls-6" d="M289.89,296.27v9.31h-5.26v-9.35l-4.41-17.66v-.14h5.37l1.67,9.34,1.7-9.34h5.33v.14Z"/><path class="cls-1" d="M101,360.62l-2.59-2.71,10.2-9.76-9.38-9.8-10.2,9.76-2.59-2.71,21.26-20.34,2.6,2.71-8.72,8.34,9.37,9.8,8.72-8.34,2.6,2.71Z"/><path class="cls-1" d="M122.67,377.36l-3.09-2.12,5.86-8.55,2.74-21.24,3.31,2.27-1.93,13.73a34.79,34.79,0,0,1-.79,3.49l.24.17c.92-.66,2-1.38,3-2l12.15-6.76,3.27,2.24-18.87,10.22Z"/><path class="cls-1" d="M154.35,362.29c2.92,1,6.1,2.12,9.84,3.68,7.79,3.25,9.16,7.83,4.78,18.35s-8.59,12.77-16.39,9.52c-3.74-1.55-6.78-3-9.53-4.38Zm-6.69,25.85c1.75.78,3.82,1.69,6.19,2.67,5.19,2.16,8.08.23,11.5-8s2.79-11.68-2.41-13.85c-2.4-1-4.39-1.78-6.25-2.51Z"/><path class="cls-1" d="M196.6,405.35c-3.91-.48-8.3-1.31-12.45-2.1-3.4-.65-5.17-3-4.62-6.09l3.6-18.94c.63-3.09,3.14-4.61,6.53-4,4.15.79,8.55,1.63,12.35,2.61l-.71,2.86-11.61-2.2c-1.72-.33-2.67.36-3,2.28l-1.19,6.29,12.48,2.37-.56,3-12.49-2.38L183.38,397c-.37,2,.27,3,2,3.29l11.6,2.2Z"/><path class="cls-1" d="M228.55,406.67l-2.75-9.17c-.8-2.21-2-3-4-3-2.73.05-4.86,0-6.48.06l.19,12.33-3.71.06-.47-29.43A86.45,86.45,0,0,1,221.5,377c6.83-.11,9.54,1.73,9.65,8.34.08,4.77-1.42,7.1-5.29,7.68v.21a5.48,5.48,0,0,1,3.69,4.16l3,9.25Zm-6.9-15.42c4.35-.11,5.78-1.33,5.71-5.68s-1.54-5.43-5.89-5.36c-2.51,0-4.69.07-6.35.14l.17,11Z"/><path class="cls-1" d="M249,395.08l-.87,9.62-3.79.83,3.19-29.78a1.39,1.39,0,0,1,1.16-1.3l3.83-.83a1.39,1.39,0,0,1,1.6.7l15.3,25.73-3.79.83-4.8-8.38Zm4-16.16c-.41-.69-.84-1.47-1.21-2.18l-1.17.26-.2,2.48-1.13,12.21,9.83-2.14Z"/><path class="cls-1" d="M289.43,375.55c4.16-1.46,6.67.45,8.6,4.72,2.5,5.52.75,8.09-5.39,10.87-4.58,2.07-6.89,3.07-10.05,4.17l-12.13-26.82a88.75,88.75,0,0,1,8.57-4.25c6.57-3,9.6-2.56,12.1,3,1.74,3.84,1.32,6.42-1.77,8.19Zm-4.62.45c3.87-1.8,4.83-3.31,3.19-6.92s-3.5-3.8-7.81-1.85L275,369.59l4.08,9Zm-.07,15.15c1.61-.68,3.71-1.63,6-2.68,4.24-1.92,5.25-3.41,3.53-7.21-1.88-4.16-3.85-4.58-8.28-2.67l-5.79,2.62Z"/><path class="cls-1" d="M312.15,369.29l3.11,9.14-3.12,2.3L303,352.23a1.39,1.39,0,0,1,.53-1.66l3.16-2.32a1.37,1.37,0,0,1,1.74,0l24.44,17.29-3.13,2.3-7.79-5.71Zm-2.89-16.4c-.66-.47-1.37-1-2-1.5l-1,.71.83,2.35,3.93,11.62,8.11-6Z"/><path class="cls-1" d="M321.1,336.27c1.88-2.44,4-5.08,6.66-8.11,5.59-6.33,10.37-6.15,18.91,1.39s9.31,12.26,3.72,18.59c-2.68,3-5,5.45-7.23,7.61ZM343.41,351c1.3-1.41,2.83-3.07,4.52-5,3.73-4.22,2.82-7.58-3.86-13.48s-10.15-6.41-13.88-2.19c-1.72,1.95-3.1,3.58-4.4,5.11Z"/></g></g></svg>