<svg xmlns="http://www.w3.org/2000/svg" viewBox="0 0 449.5 227.1"><defs><style>.cls-1{fill:#faa61a;}.cls-1,.cls-2{stroke:#fff;stroke-width:2px;}.cls-2{fill:#231f20;}.cls-3{fill:#fff;}</style></defs><title>Asset 2</title><g id="Layer_2" data-name="Layer 2"><g id="Layer_1-2" data-name="Layer 1"><text/><rect class="cls-1" x="1" y="1" width="447.5" height="147.84"/><rect class="cls-2" x="1" y="148.84" width="447.5" height="77.26"/><path class="cls-3" d="M70,97.8l-2.52,20.75h-20L61.93,31.33H91.26l14.8,87.22H85.6L82.78,97.8ZM81.12,83c-1.46-11.16-3.5-28.14-4.45-36.49h-.78c-.35,6.08-2.78,25.71-4.13,36.49Z"/><path class="cls-3" d="M121.53,118.55,110,31.33h20.71c1.45,15.6,3.51,45.15,4,58.92h.68c2.07-17.08,4.52-40.82,6.69-58.92H159c2.11,17.05,4.45,40.48,6.37,58.63h.79c.9-16.27,2.77-44.19,4.11-58.63h19.42l-12.92,87.22H156.34c-2-15.3-4.57-32.17-6.38-50.2h-.68c-2,17.75-5,34.44-7.2,50.2Z"/><path class="cls-3" d="M217.14,91.67v6c0,5.74,1.67,8.4,6.15,8.4s5.6-4,5.6-8.06c0-8.23-1.82-10.62-12.26-18.07-11.52-8.32-17.44-13.25-17.44-26.1,0-12.46,4.84-23.94,24.21-23.94,20.57,0,23.6,12,23.6,22v5H228.43V51.69c0-5.3-1-7.91-4.91-7.91-3.63,0-4.8,2.66-4.8,7.6,0,5.25,1.12,7.84,9.58,13.47,15,10.08,20.43,15.74,20.43,30.1,0,13.66-5.47,24.91-25.78,24.91-19.51,0-25.08-10-25.08-23V91.67Z"/><path class="cls-3" d="M304.45,31.33V97.75c0,5.09,1.81,7.81,6.3,7.81,4.75,0,6.21-3.1,6.21-7.81V31.33h19.91V96.67c0,15.46-8.33,23.1-26.43,23.1-17.77,0-25.79-7.39-25.79-23.24V31.33Z"/><path class="cls-3" d="M403.19,118.55H388.4a41.55,41.55,0,0,1-.92-6.45c-3.23,6.12-9.8,7.76-16.12,7.76-15.92,0-20.39-10.1-20.39-24.35v-41C351,41.1,357.46,30,377,30c23.55,0,25.92,14.61,25.92,23.41v3.92h-19.8v-4.8c0-4.23-.61-8.15-6.07-8.15-4.5,0-6.16,2.81-6.16,8.5V97.62c0,5.93,2.25,8.11,6.16,8.11,4.79,0,6.42-3.17,6.42-10.35V82.87h-6.77V68.72h26.52Z"/><path class="cls-3" d="M50.27,171.38h2.31v13h18v-13h2.31v29.94H70.54V186.56h-18v14.76H50.27Z"/><path class="cls-3" d="M101.38,201.32V190.07a1.43,1.43,0,0,0-.17-.69l-10.69-18h2.69c3,5.09,8.22,13.94,9.5,16.17,1.28-2.23,6.54-11,9.75-16.17H115l-11.17,18.18a1.37,1.37,0,0,0-.12.64v11.12Z"/><path class="cls-3" d="M132.44,171.38h9.92c8.21,0,13.9,5.73,13.9,14.71s-5.56,15.23-13.94,15.23h-9.88Zm2.31,27.8H142c7.91,0,11.8-5.56,11.8-13,0-6.59-3.51-12.7-11.8-12.7h-7.23Z"/><path class="cls-3" d="M193.69,186.6H178.42v12.58h16.72l-.34,2.14H176.11V171.38h18.35v2.14h-16v10.95h15.27Z"/><path class="cls-3" d="M216.66,187.33v14h-2.35V171.38H225c5.91,0,9,3.16,9,7.87a6.78,6.78,0,0,1-5.6,7c3.08.73,5.13,2.74,5.13,7.83v1.15c0,2.1-.17,4.92.38,6.08h-2.35c-.55-1.29-.43-3.68-.43-6.25v-.77c0-4.92-1.45-7-7.18-7Zm0-2.14h7.23c5.26,0,7.7-2,7.7-5.9,0-3.68-2.4-5.77-7.06-5.77h-7.87Z"/><path class="cls-3" d="M258.07,191l-3.81,10.35h-2.35l11-29.94h2.74l11.46,29.94h-2.52L270.68,191Zm11.84-2.14c-3.33-8.9-5-13.17-5.64-15.19h0c-.73,2.27-2.66,7.58-5.35,15.19Z"/><path class="cls-3" d="M295.67,171.38H306.1c5.73,0,8.81,3,8.81,7.35a6.48,6.48,0,0,1-4.62,6.55,7.57,7.57,0,0,1,5.69,7.4c0,6-4.49,8.64-9.71,8.64h-10.6Zm9.66,12.87c5.18,0,7.14-1.92,7.14-5.39,0-3-2.05-5.34-6.24-5.34h-8.3v10.73Zm-7.4,14.93h8.43c3.93,0,7.23-2,7.23-6.37,0-3.81-2.44-6.42-8.47-6.42h-7.19Z"/><path class="cls-3" d="M339,191l-3.81,10.35h-2.35l11-29.94h2.74L358,201.32h-2.52L351.61,191Zm11.84-2.14c-3.33-8.9-5-13.17-5.64-15.19h0c-.73,2.27-2.66,7.58-5.35,15.19Z"/><path class="cls-3" d="M376.6,171.38h9.92c8.21,0,13.9,5.73,13.9,14.71s-5.56,15.23-13.94,15.23H376.6Zm2.31,27.8h7.22c7.92,0,11.81-5.56,11.81-13,0-6.59-3.51-12.7-11.81-12.7h-7.22Z"/></g></g></svg>